<svg viewBox="0 0 200 200" xmlns="http://www.w3.org/2000/svg">
  <circle cx="100" cy="100" r="100" fill="black"/>
  <g transform="translate(100,85) scale(1.1) translate(-50,-50)">
    <!-- Real Lobe 1: Right (The largest piece) -->
    <path d="M55 20 C 75 20, 90 35, 88 55 C 86 75, 75 92, 53 88 L 55 20 Z" fill="white" />
    <!-- Real Lobe 2: Top Left (Smallest piece) -->
    <path d="M46 22 C 30 20, 18 30, 20 45 C 22 55, 35 55, 45 45 L 46 22 Z" fill="white" />
    <!-- Real Lobe 3: Bottom Left (Medium piece) -->
    <path d="M43 50 C 30 55, 18 65, 22 80 C 26 92, 45 92, 50 88 C 55 84, 55 75, 43 50 Z" fill="white" />
  </g>
  <text x="50%" y="165" text-anchor="middle" fill="white" font-family="Arial, sans-serif" font-weight="900" font-size="20" letter-spacing="1">ONE ZERO, COFFEE</text>
</svg>
